<svg xmlns="http://www.w3.org/2000/svg" width="60" height="43" viewBox="0 0 60 43">
  <g fill="none" fill-rule="evenodd">
    <path fill="#FFF" d="M0 21.445C0 9.033 10.642.021 20.901.021h18.41c9.898 0 20.604 9.22 20.604 21.383 0 11.056-8.812 21.362-21.795 21.362H21.263C10.28 42.766 0 33.46 0 21.446z"/>
    <path fill="#7BC144" d="M16.133 21.362c0-8.094 4.513-15.104 11.196-18.817a20.77 20.77 0 0 0-5.364-.71c-11.068-.04-20.007 8.72-20.007 19.527 0 10.806 8.94 19.61 20.007 19.61 1.873 0 3.704-.25 5.449-.751-6.726-3.714-11.28-10.765-11.28-18.86"/>
    <path fill="#008853" d="M18.22 21.445c0-10.806 8.939-19.567 19.964-19.567 11.025 0 19.964 8.761 19.964 19.567 0 10.807-8.94 19.568-19.964 19.568-11.025 0-19.965-8.761-19.965-19.568"/>
    <path fill="#FFF" d="M41.078 15.229c-1.404 0-2.681.417-3.703 1.168-1.022-.751-2.299-1.168-3.704-1.168-3.362 0-6.044 2.461-6.044 5.883 0 3.42 2.682 5.882 6.044 5.882 1.405 0 2.682-.417 3.704-1.168 1.022.751 2.299 1.168 3.703 1.168 3.363 0 6.045-2.461 6.045-5.882 0-3.422-2.682-5.883-6.045-5.883zm0 10.514c-2.554 0-4.342-2.086-4.342-4.631 0-.793.17-1.502.469-2.17-.298-.5-.639-.918-1.107-1.252-.681.96-1.064 2.128-1.064 3.422 0 1.46.468 2.712 1.277 3.713a4.346 4.346 0 0 1-2.64.876c-2.554 0-4.341-2.086-4.341-4.631 0-2.545 1.787-4.631 4.341-4.631 2.555 0 4.342 2.086 4.342 4.63 0 .794-.17 1.503-.468 2.17.298.501.639.918 1.107 1.252.681-.96 1.064-2.128 1.064-3.421 0-1.46-.468-2.712-1.277-3.713a4.126 4.126 0 0 1 2.64-.918c2.553 0 4.341 2.086 4.341 4.63 0 2.588-1.788 4.674-4.342 4.674zM26.563 15.73a.756.756 0 0 0-.767-.752.756.756 0 0 0-.766.751v10.807c0 .417.34.75.766.75a.756.756 0 0 0 .767-.75V15.729zM53.977 15.52h-4.342c-1.15 0-1.66.71-1.66 1.795v9.304c.042.417.383.71.766.71.425 0 .766-.335.766-.71v-4.256c0-.25.042-.333.34-.333h2.682c.383 0 .554-.334.554-.668s-.17-.668-.554-.668h-3.022v-3.212c0-.417.128-.668.766-.668h3.618c.384 0 .554-.292.554-.667.085-.334-.085-.626-.468-.626z"/>
  </g>
</svg>
